<svg width="34" height="34" fill="none" xmlns="http://www.w3.org/2000/svg"><circle cx="17" cy="17" r="17" fill="#000"/><path d="M11.781 22.4c-.873-.05-.857-1.428 0-1.476 2.429.01 8.834.003 11.34.005.685 0 1.271-.523 1.426-1.271l1.422-6.907c.082-.395 0-.805-.225-1.123-.225-.318-.562-.503-.924-.503-1.008 0-9.564-.043-13.947-.063l-.694-2.89C10.012 7.483 9.449 7 8.812 7H6.586C6.262 7 6 7.294 6 7.657c0 .363.262.657.586.657h2.226c.11 0 .206.083.235.201l2.668 11.097c-.47.019-.906.233-1.238.61-.348.396-.535.92-.526 1.476.017 1.111.838 2.016 1.83 2.016h.855a2.519 2.519 0 00-.198.986c0 1.268.92 2.3 2.052 2.3 1.131 0 2.052-1.032 2.052-2.3a2.52 2.52 0 00-.199-.986h3.702a2.519 2.519 0 00-.198.986c0 1.268.92 2.3 2.052 2.3 1.131 0 2.052-1.032 2.052-2.3a2.5 2.5 0 00-.214-1.02c.232-.088.4-.334.4-.623 0-.363-.263-.657-.587-.657H11.781zm3.588 2.3c0 .544-.394.986-.88.986-.484 0-.879-.442-.879-.986 0-.543.394-.985.879-.986h.002c.484 0 .878.443.878.986zm6.53.985c-.485 0-.88-.442-.88-.985 0-.539.387-.977.866-.986h.028c.479.009.865.447.865.986 0 .543-.394.985-.88.985zm2.926-13.24c.003.004.003.006.002.01l-.6 2.91h-2.03l.346-2.936 2.273.01c.003 0 .005 0 .009.005zm-6.044 7.17V16.68h2.079l-.346 2.934h-1.733zm-2.907 0l-.349-2.935h2.083v2.934h-1.735zm-2.7 0h-.001c-.143 0-.269-.109-.306-.263l-.643-2.672h2.118l.349 2.934h-1.516zm2.195-4.25l-.352-2.97 2.591.012v2.959h-2.239zm3.412 0v-2.953l2.58.012-.346 2.942H18.78zm-4.948-2.975l.353 2.975h-2.278l-.718-2.987 2.643.012zm9.288 7.224h-1.424l.346-2.934h1.913l-.552 2.682c-.03.149-.147.252-.283.252z" fill="#fff"/></svg>