<svg width="96" height="96" fill="none" xmlns="http://www.w3.org/2000/svg"><path d="M77.719 35.349h-6.044l1.82-20.908a1.08 1.08 0 00.005-.113v-.01c0-.57-.343-1.072-.848-1.29l-.012-.005a1.348 1.348 0 00-.097-.036l-.036-.012a1.18 1.18 0 00-.08-.021l-.058-.014c-.023-.005-.048-.008-.073-.011-.023-.004-.045-.008-.068-.01l-.011-.001-.074-.003-.05-.002H43.315a1.407 1.407 0 000 2.812h27.247l-2.799 32.133v.007l-.707 8.108H18.191l.817-8.437h9.304a1.406 1.406 0 100-2.813h-9.031l1.726-17.811h14.808a1.406 1.406 0 100-2.813H21.279l.812-8.374H37.69a1.41 1.41 0 001.406-1.406c0-.776-.632-1.406-1.406-1.406H20.812c-.66 0-1.233.465-1.372 1.11l-.003.013c-.007.035-.012.071-.017.107l-.005.034v.006l-.961 9.916H1.406a1.406 1.406 0 100 2.813h16.775l-1.726 17.811h-5.017a1.406 1.406 0 100 2.813h4.745l-.94 9.698v.004L13.79 72.234a.07.07 0 010 .005l-.001.006-.003.058c-.002.026-.004.05-.004.077v.004c0 .036.003.072.005.107l.002.034c.004.037.01.073.017.108l.005.032c.005.027.013.053.02.08l.014.055.006.015c.068.21.183.397.334.55l.008.01.047.042a1.406 1.406 0 00.401.259l.024.009c.035.014.07.028.107.039a1.49 1.49 0 00.136.035l.018.002c.04.008.082.014.124.019h.002c.046.004.092.007.137.007h6.262c.692 5.24 5.186 9.3 10.613 9.3s9.92-4.06 10.611-9.3h22.556c.692 5.24 5.185 9.3 10.612 9.3 5.427 0 9.921-4.06 10.612-9.3h6.265c.047 0 .093-.003.139-.008l.024-.003c.037-.004.073-.01.109-.016l.045-.011a1.34 1.34 0 00.083-.021l.054-.018a1.32 1.32 0 00.069-.026c.02-.007.038-.016.057-.024a1.574 1.574 0 00.226-.13c.02-.013.038-.027.056-.041l.046-.037a1.34 1.34 0 00.056-.051l.038-.037c.02-.02.038-.04.057-.062l.03-.034c.02-.026.04-.052.058-.078l.02-.028a1.42 1.42 0 00.064-.106l.004-.006c.021-.04.04-.08.058-.12l.013-.036c.012-.03.023-.058.033-.089l.016-.059c.006-.023.013-.046.018-.07l.011-.065.01-.057c.06-.477 1.16-9.312 1.652-15.025l.002-.017c.141-1.646.232-3.033.232-3.882 0-10.08-8.2-18.281-18.281-18.281zm-6.29 2.812h5.754l-.735 8.437h-5.753l.735-8.437zM32.065 80.275c-4.353 0-7.895-3.542-7.895-7.895s3.542-7.895 7.895-7.895 7.895 3.542 7.895 7.895-3.542 7.895-7.895 7.895zm43.78 0c-4.354 0-7.895-3.542-7.895-7.895s3.541-7.895 7.894-7.895 7.895 3.542 7.895 7.895-3.541 7.895-7.895 7.895zm15.63-9.302h-5.018c-.691-5.241-5.185-9.301-10.612-9.301-5.427 0-9.921 4.06-10.612 9.301H42.676c-.691-5.241-5.185-9.301-10.612-9.301-5.427 0-9.92 4.06-10.612 9.301h-4.715l1.182-12.188h50.427a1.3 1.3 0 00.14-.007c.009 0 .017-.002.026-.003.036-.005.073-.01.109-.017l.046-.011.084-.022.054-.019c.024-.008.048-.016.07-.025l.058-.026.062-.03c.02-.01.038-.021.057-.032a1.425 1.425 0 00.264-.2 1.405 1.405 0 00.246-.312l.028-.05.032-.067c.008-.018.017-.036.024-.055.01-.022.017-.045.025-.067.007-.02.015-.04.02-.061l.018-.066c.005-.023.011-.045.015-.068.005-.022.007-.044.01-.067.004-.023.008-.046.01-.07l.002-.01.704-8.09h7.268c4.309 0 6.252 2.232 8.31 4.596 1.697 1.95 3.592 4.126 6.813 4.657-.41 4.326-1.07 9.879-1.366 12.31zm1.607-15.128c-2.09-.426-3.375-1.895-4.933-3.685-1.947-2.238-4.326-4.968-8.884-5.477l.727-8.353c7.456 1.102 13.197 7.543 13.197 15.3 0 .527-.04 1.293-.107 2.215z" fill="#000"/><path d="M32.064 67.224a5.162 5.162 0 00-5.156 5.156 5.162 5.162 0 005.156 5.156 5.162 5.162 0 005.156-5.156 5.162 5.162 0 00-5.156-5.156zm0 7.5a2.346 2.346 0 01-2.344-2.344 2.346 2.346 0 012.344-2.344 2.346 2.346 0 012.344 2.344 2.346 2.346 0 01-2.344 2.344zm43.779-7.5a5.162 5.162 0 00-5.156 5.156 5.162 5.162 0 005.156 5.156A5.162 5.162 0 0081 72.38a5.162 5.162 0 00-5.157-5.156zm0 7.5A2.346 2.346 0 0173.5 72.38a2.346 2.346 0 012.344-2.344 2.346 2.346 0 012.344 2.344 2.346 2.346 0 01-2.344 2.344zM13.313 35.35H6.438a1.406 1.406 0 100 2.812h6.875a1.406 1.406 0 100-2.813z" fill="#000"/></svg>