<svg width="96" height="96" fill="none" xmlns="http://www.w3.org/2000/svg"><path d="M85.5 6h-63a7.509 7.509 0 00-7.5 7.5v5.073l-3.317 1.658A15.623 15.623 0 003 34.281V54.75a9.043 9.043 0 003.6 7.2l2.4 1.8V66a12.013 12.013 0 0012 12h34.5v6a6 6 0 0012 0v-6h18a7.509 7.509 0 007.5-7.5v-57A7.508 7.508 0 0085.5 6zM21 75a9.01 9.01 0 01-9-9v-3a1.5 1.5 0 00-.6-1.2l-3-2.25a6.028 6.028 0 01-2.4-4.8v-1.776a15.714 15.714 0 005.683 4.795L15 59.427V64.5a7.509 7.509 0 007.5 7.5h33v3H21zm23.216-44.319a7.5 7.5 0 116.368 12.74 10.49 10.49 0 00-6.368-12.74zM25.5 33a6 6 0 116 6 6.006 6.006 0 01-6-6zm15 0a7.499 7.499 0 11-7.376 8.85A9.013 9.013 0 0040.5 33zM54 45.485a10.491 10.491 0 002.57-17.24 33.459 33.459 0 017.93-11.486V57H54V45.485zM67.5 30a4.505 4.505 0 014.5 4.5v3a4.505 4.505 0 01-4.5 4.5V30zm-3 54a3 3 0 01-6 0V60h6v24zm21-9h-18v-3h18a7.46 7.46 0 004.5-1.504v.004a4.505 4.505 0 01-4.5 4.5zM90 64.5a4.505 4.505 0 01-4.5 4.5h-18V45a7.49 7.49 0 005.928-2.913l7.015 2.806a1.5 1.5 0 001.98-.919l1.231-3.693 1.66.207A1.5 1.5 0 0087 39v-6a1.5 1.5 0 00-1.686-1.488l-1.66.207-1.23-3.693a1.499 1.499 0 00-1.981-.919l-7.015 2.806A7.49 7.49 0 0067.5 27V13.5a1.5 1.5 0 00-2.42-1.184 36.456 36.456 0 00-11.038 14.218 10.497 10.497 0 00-13.165 3.476c-.126-.005-.25-.01-.377-.01-.17 0-.341.005-.511.014a8.999 8.999 0 10-9.894 11.876 10.492 10.492 0 0019.022 4.6c.128.004.256.01.383.01.502 0 1.003-.037 1.5-.109V58.5a1.5 1.5 0 001.5 1.5h3v9h-33a4.505 4.505 0 01-4.5-4.5v-6a1.5 1.5 0 00-.83-1.342l-4.145-2.073A12.638 12.638 0 016 43.72v-9.44a12.64 12.64 0 017.025-11.366l4.146-2.073A1.5 1.5 0 0018 19.5v-6A4.505 4.505 0 0122.5 9h63a4.505 4.505 0 014.5 4.5v51zm-9.382-24.599l-.538 1.615-5.321-2.128c.018-.07.034-.142.05-.213l5.81.726zM75 36.176v-.352l9-1.125v2.602l-9-1.125zm-.191-3.351c-.016-.071-.032-.143-.05-.213l5.321-2.129.538 1.616-5.809.726z" fill="#000"/><path d="M13.5 28.5A4.505 4.505 0 009 33v12a4.5 4.5 0 109 0V33a4.505 4.505 0 00-4.5-4.5zm0 3A1.502 1.502 0 0115 33v1.758a4.49 4.49 0 00-3 0V33a1.502 1.502 0 011.5-1.5zM15 45a1.5 1.5 0 11-3 0v-6a1.5 1.5 0 113 0v6zm46.5 39a1.5 1.5 0 100-3 1.5 1.5 0 000 3zM24 57.124v2.436a4.946 4.946 0 004.94 4.94h8.12a4.94 4.94 0 001.42-9.672l-8.12-2.436A4.94 4.94 0 0024 57.124zm3 0a1.943 1.943 0 012.498-1.859l8.12 2.436a1.94 1.94 0 01-.558 3.799h-8.12A1.943 1.943 0 0127 59.56v-2.436zM43.794 13.53l-7.5-1.5A1.5 1.5 0 0034.5 13.5v6a1.5 1.5 0 001.026 1.423l4.5 1.5a1.498 1.498 0 001.816-.752l3-6a1.5 1.5 0 00-1.048-2.142zm-4.054 5.636l-2.24-.747v-3.09l3.78.757-1.54 3.08zm10.193-.721l3-3 2.12 2.122-2.999 3-2.12-2.122zM21.432 46.937l3-3 2.12 2.122-2.999 2.999-2.12-2.121zm22.497 9.623l2.12-2.121 3 3-2.12 2.12-3-3zM25.935 16.062l2.12-2.121 3 3-2.12 2.12-3-2.999z" fill="#000"/></svg>