<svg width="96" height="96" fill="none" xmlns="http://www.w3.org/2000/svg"><g clip-path="url(#clip0)" fill="#000"><path d="M95.56 29.572C90.952 15.532 79.656 4.456 65.512.108c-1.228-.406-2.653.38-2.963 1.636l-7.042 26.247a1.41 1.41 0 002.723.73l4.958-18.478a37.993 37.993 0 0122.71 22.295l-13.602 4.993c-1.655-2.86-5.475-4.154-8.534-2.863-3.063 1.223-4.787 4.426-4.281 7.567l-5.41 1.986 2.452-9.137a1.41 1.41 0 00-2.724-.73l-2.686 10.011c-.54 1.768 1.375 3.51 3.079 2.814L94.14 32.516a2.342 2.342 0 001.422-2.944zM63.92 7.51l1.224-4.562C78.09 7.1 88.355 17.172 92.74 30.027l-4.194 1.539C84.31 20.334 75.246 11.479 63.92 7.509zm.887 29.777c1.64-.687 3.67-.145 4.76 1.247l-7.357 2.7a4.149 4.149 0 012.597-3.947z"/><path d="M90.797 39.544a2.35 2.35 0 00-3.096-1.663l-17.042 6.256-8.633 3.169-.01.004-6.852 2.515a1.41 1.41 0 00.971 2.647l5.66-2.078a6.897 6.897 0 003.142 2.75 6.936 6.936 0 002.795.592c.854 0 1.708-.16 2.527-.479 3.087-1.2 4.841-4.407 4.344-7.565l6.486-2.38c.438 2.241.663 4.533.663 6.833 0 19.586-15.934 35.52-35.52 35.52-19.585 0-35.52-15.934-35.52-35.52 0-19.585 15.935-35.52 35.52-35.52 2.304 0 4.6.226 6.845.666L42.849 53.405c-.228.85.034 1.748.684 2.343a2.341 2.341 0 002.394.471l4.032-1.48a1.41 1.41 0 00-.971-2.647l-3.182 1.168L57.88 8.27c.362-1.25-.488-2.649-1.764-2.905a45.986 45.986 0 00-11.71-1.045c-7.313.282-14.52 2.329-20.841 5.918a1.41 1.41 0 101.391 2.451c6.017-3.415 12.597-5.283 19.559-5.552a43.22 43.22 0 0110.514.878l-1.22 4.547a38.459 38.459 0 00-7.577-.755c-21.14 0-38.338 17.198-38.338 38.338s17.198 38.34 38.338 38.34 38.34-17.2 38.34-38.34c0-2.633-.272-5.257-.804-7.817l4.405-1.617c.567 2.537.906 5.15 1.007 7.773.444 11.486-3.613 22.458-11.422 30.894-7.81 8.436-18.436 13.326-29.922 13.77-23.713.912-43.75-17.632-44.666-41.345-.532-13.765 5.635-27.06 16.495-35.567a1.41 1.41 0 10-1.738-2.22 46.257 46.257 0 00-13.205 16.5C1.579 37.138.068 44.537.353 51.911c.473 12.24 5.683 23.563 14.672 31.883C23.57 91.705 34.554 96 46.132 96c.602 0 1.208-.012 1.813-.035 12.239-.473 23.561-5.683 31.882-14.672 8.321-8.989 12.643-20.68 12.17-32.918a46.168 46.168 0 00-1.2-8.831zM69.237 50.63l-.002.001a4.106 4.106 0 01-3.164-.067 4.112 4.112 0 01-1.543-1.173l7.341-2.695a4.146 4.146 0 01-2.632 3.934z"/><path d="M39.467 31.352a6.209 6.209 0 006.202-6.202 6.209 6.209 0 00-6.202-6.202 6.209 6.209 0 00-6.202 6.202 6.209 6.209 0 006.202 6.202zm0-9.585a3.387 3.387 0 013.383 3.383 3.387 3.387 0 01-3.383 3.383 3.387 3.387 0 01-3.383-3.383 3.387 3.387 0 013.383-3.383zm6.766 60.891a6.209 6.209 0 006.201-6.202 6.209 6.209 0 00-6.201-6.202 6.209 6.209 0 00-6.202 6.202 6.209 6.209 0 006.202 6.202zm0-9.585a3.387 3.387 0 013.382 3.383 3.387 3.387 0 01-3.382 3.383 3.387 3.387 0 01-3.383-3.383 3.387 3.387 0 013.383-3.383zM16.915 43.192a6.209 6.209 0 006.202 6.202 6.209 6.209 0 006.201-6.202 6.209 6.209 0 00-6.201-6.202 6.209 6.209 0 00-6.202 6.202zm6.202-3.383a3.387 3.387 0 013.382 3.383 3.387 3.387 0 01-3.382 3.383 3.387 3.387 0 01-3.383-3.383 3.387 3.387 0 013.383-3.383zm3.758 34.017a6.209 6.209 0 006.202-6.202 6.209 6.209 0 00-6.202-6.202 6.209 6.209 0 00-6.202 6.202 6.209 6.209 0 006.202 6.202zm0-9.585a3.387 3.387 0 013.383 3.383 3.387 3.387 0 01-3.383 3.383 3.387 3.387 0 01-3.383-3.383 3.387 3.387 0 013.383-3.383zm41.805-3.935a1.41 1.41 0 10-.24-2.808c-3.179.27-5.669 2.985-5.669 6.179a6.209 6.209 0 006.202 6.202 6.209 6.209 0 006.202-6.202c.108-1.022-.456-2.199-1.636-2.034-1.02.126-1.357 1.135-1.183 2.034a3.387 3.387 0 01-3.383 3.383 3.387 3.387 0 01-3.383-3.383 3.401 3.401 0 013.09-3.37zM32.63 34.371c-.068.195-1.624 4.816.608 7.996 2.22 3.164 7.142 3.379 7.35 3.387h.052a1.41 1.41 0 001.332-.95c.067-.195 1.624-4.815-.608-7.995-2.221-3.164-7.142-3.379-7.35-3.386a1.405 1.405 0 00-1.384.948zm2.393 2c1.316.235 3.163.817 4.034 2.057.858 1.224.762 3.097.522 4.376-1.316-.234-3.163-.816-4.034-2.056-.858-1.224-.762-3.097-.522-4.376zm19.57 21.596c-3.59-1.434-7.827 1.078-8.006 1.186-.531.32-.79.95-.64 1.551.051.2 1.276 4.92 4.884 6.361a6.497 6.497 0 002.423.441c2.84 0 5.443-1.543 5.582-1.627.531-.32.79-.95.64-1.551-.05-.2-1.276-4.92-4.883-6.361zm-2.717 6.48c-1.388-.554-2.331-2.175-2.831-3.377 1.23-.524 3.095-1.047 4.502-.485 1.389.554 2.332 2.175 2.832 3.377-1.231.524-3.095 1.047-4.503.485zm-11.819-8.039a1.41 1.41 0 00.292-1.652c-.091-.185-2.299-4.533-6.131-5.167-3.815-.632-7.415 2.73-7.566 2.873a1.41 1.41 0 00-.293 1.652c.092.185 2.3 4.533 6.132 5.167.327.054.653.08.975.08 3.431-.001 6.453-2.822 6.591-2.953zm-10.594-2.6c1.09-.775 2.8-1.685 4.294-1.438 1.475.244 2.744 1.625 3.489 2.692-1.09.775-2.8 1.686-4.294 1.438-1.475-.244-2.743-1.625-3.489-2.692zm36.588-23.802c.214 0 .43-.049.63-.149.184-.092 4.53-2.304 5.16-6.137.629-3.814-2.736-7.412-2.88-7.563a1.41 1.41 0 00-1.652-.29c-.185.092-4.53 2.303-5.161 6.136-.628 3.815 2.736 7.412 2.88 7.563.273.288.645.44 1.023.44zM64.93 22.46c.243-1.475 1.623-2.745 2.69-3.491.776 1.089 1.688 2.797 1.442 4.292-.243 1.473-1.62 2.742-2.686 3.49-.72-1.005-1.705-2.716-1.446-4.29zM15.223 56.441a4.234 4.234 0 004.229 4.229 4.234 4.234 0 004.228-4.229 4.233 4.233 0 00-4.228-4.228 4.233 4.233 0 00-4.229 4.228zm4.229-1.41a1.411 1.411 0 010 2.819 1.41 1.41 0 010-2.819zM26.97 34.17a4.233 4.233 0 004.228-4.228 4.233 4.233 0 00-4.229-4.228 4.233 4.233 0 00-4.228 4.228 4.233 4.233 0 004.228 4.229zm0-5.637a1.411 1.411 0 010 2.819 1.41 1.41 0 010-2.82zm54.03.282a4.233 4.233 0 00-4.228-4.229 4.233 4.233 0 00-4.229 4.229 4.233 4.233 0 004.229 4.229A4.233 4.233 0 0081 28.815zm-5.638 0a1.411 1.411 0 012.819 0c0 .777-.632 1.41-1.409 1.41s-1.41-.633-1.41-1.41zm-15.88 41.439a4.233 4.233 0 00-4.229 4.229 4.234 4.234 0 004.229 4.228 4.234 4.234 0 004.229-4.228 4.233 4.233 0 00-4.229-4.229zm0 5.638c-.777 0-1.41-.632-1.41-1.41a1.411 1.411 0 012.82 0c0 .778-.633 1.41-1.41 1.41zm-20.109-6.389a4.234 4.234 0 004.229-4.229 4.233 4.233 0 00-4.23-4.228 4.233 4.233 0 00-4.228 4.228 4.234 4.234 0 004.229 4.229zm0-5.638c.777 0 1.41.632 1.41 1.41a1.411 1.411 0 01-2.82 0c0-.778.633-1.41 1.41-1.41z"/></g><defs><clipPath id="clip0"><path fill="#fff" d="M0 0h96v96H0z"/></clipPath></defs></svg>