<svg width="55" height="55" fill="none" xmlns="http://www.w3.org/2000/svg"><circle cx="27.5" cy="27.5" r="27.5" fill="#E65858"/><path d="M40.995 23.45c-.044-.77-.96-1.372-2.792-1.83.062-.136.096-.276.097-.422V18.05h-.008c-.16-2.623-10.908-2.7-12.142-2.7s-11.981.077-12.142 2.7H14v3.15c.002.855 1.106 1.524 2.747 2.022a.992.992 0 00-.04.228H16.7v3.144c-1.768.456-2.652 1.049-2.695 1.806H14v3.149c.001.596.538 1.1 1.417 1.522a.99.99 0 00-.06.28h-.007V36.5c.004 1.497 3.374 2.426 7.118 2.86.028.005.053.016.082.016.008 0 .016-.004.024-.005.722.082 1.456.145 2.181.19.016.003.03.01.045.01.008 0 .015-.005.023-.005.922.056 1.829.084 2.677.084.848 0 1.755-.028 2.677-.085.008 0 .015.005.023.005.016 0 .03-.007.044-.009.726-.045 1.46-.108 2.182-.19.008 0 .015.005.024.005.03 0 .054-.012.082-.017 3.744-.434 7.114-1.364 7.118-2.86V33.35h-.007c-.032-.552-.502-1.012-1.43-1.397.056-.13.087-.265.087-.405v-2.941c1.616-.497 2.698-1.161 2.7-2.009V23.45h-.005zm-3.644 8.245l-.153.134c-.236.208-.63.419-1.148.621v-2.146c.535-.186.99-.392 1.35-.619v1.862a.286.286 0 01-.049.148zm-10.064 2.09l-.198.005c-.16.003-.326.004-.489.005v-2.248l.372-.005.071-.001c.453-.009.907-.023 1.357-.044v2.247l-.29.014c-.271.012-.545.02-.823.028zm-1.965.007a45.811 45.811 0 01-1.422-.048v-2.246c.451.021.905.035 1.358.043l.07.001.372.006v2.249l-.261-.002-.117-.003zm-8.128-1.026a1.933 1.933 0 00-.044-.013V30.58c.42.114.872.217 1.35.311v2.197a20.59 20.59 0 01-1.141-.275c-.055-.015-.112-.03-.165-.046zm9.485 3.726c.123.003.247.004.371.006v2.25a45.275 45.275 0 01-1.8-.053v-2.247a47.04 47.04 0 001.429.044zm1.714-.001c.453-.008.906-.023 1.357-.043v2.247c-.578.028-1.178.046-1.8.052v-2.25a45.945 45.945 0 00.443-.006zM32 36.288v2.234a38.41 38.41 0 01-1.35.119v-2.244c.456-.03.907-.067 1.35-.11zm.9-.098c.464-.055.914-.119 1.35-.19v2.21a30.02 30.02 0 01-1.35.206V36.19zm2.25-.35c.478-.094.93-.198 1.35-.311v2.174c-.401.115-.852.228-1.35.333V35.84zm-15.3 0v2.196c-.498-.105-.95-.218-1.35-.333v-2.174c.42.113.872.217 1.35.31zm.9.161c.436.07.886.134 1.35.19v2.226a31.41 31.41 0 01-1.35-.206V36zm2.25.287c.443.042.894.079 1.35.109v2.244a39.19 39.19 0 01-1.35-.118v-2.235zm-1.116-2.691l-.137-.014c-.033-.003-.065-.008-.097-.01v-2.235c.443.043.894.08 1.35.11v2.242a43.351 43.351 0 01-1.116-.093zM20.75 31.24v2.226a31.255 31.255 0 01-1.35-.206v-2.21c.436.071.886.135 1.35.19zm8.85 2.429l-.3.022v-2.244c.456-.03.907-.066 1.35-.11v2.235a36.748 36.748 0 01-1.05.097zm1.95-.203V31.24c.464-.055.914-.119 1.35-.19v2.21a30.02 30.02 0 01-1.35.206zm2.25-2.576c.478-.094.93-.198 1.35-.311v2.174c-.4.115-.852.228-1.35.333V30.89zm-6.154-2.056a38.899 38.899 0 01-.994-.037l-.052-.002v-2.247c.45.021.904.035 1.357.043l.071.001.372.006v2.247c-.22-.003-.44-.003-.654-.008l-.1-.003zm-10.496-6.43v-2.175c.42.114.872.217 1.35.311v2.197l-.166-.035a19.111 19.111 0 01-1.184-.299zm8.179-1.212c.123.003.247.004.371.006v2.247a44.53 44.53 0 01-1.8-.052v-2.245a47.051 47.051 0 001.429.044zm1.714-.001a47.06 47.06 0 001.357-.043v2.245c-.076.003-.15.009-.227.012l-.02.001c-.301.014-.609.024-.92.031l-.147.003c-.16.003-.324.004-.486.005v-2.247l.371-.006.072-.001zm10.254.226l-.013-.003-.163.128c-.238.184-.603.372-1.071.553v-2.141c.535-.186.99-.393 1.35-.62v1.863c0 .068-.036.142-.103.22zm-5.747 1.696V20.89c.464-.055.914-.119 1.35-.19v2.206a29.65 29.65 0 01-1.35.207zm2.25-.38V20.54c.478-.094.93-.197 1.35-.31v2.168c-.403.118-.857.23-1.35.335zm-3.15-1.745v2.232c-.435.046-.885.086-1.35.119v-2.242a44.8 44.8 0 001.35-.11zm-9 2.233v-2.233c.443.042.894.079 1.35.109v2.24c-.458-.033-.91-.07-1.35-.116zm-.9-2.33v2.223c-.09-.012-.182-.021-.27-.033l-.17-.025c-.26-.038-.514-.078-.763-.12l-.147-.026v-2.209c.436.07.886.134 1.35.19zm4.838 7.842l-.182-.014c-.288-.022-.57-.047-.844-.075-.059-.005-.117-.012-.176-.018l-.036-.004v-2.234c.443.042.894.079 1.35.109v2.243l-.112-.007zm-2.973-.337c-.178-.028-.345-.059-.515-.088V26.1c.436.07.886.134 1.35.19v2.226a34.828 34.828 0 01-.835-.12zM21.2 25.94v2.193c-.497-.107-.948-.22-1.35-.338v-2.166c.42.113.872.217 1.35.31zm-2.25-.586v2.138c-.707-.273-1.164-.552-1.312-.8l-.03-.051c-.003-.014-.008-.029-.008-.043v-1.863c.36.226.815.433 1.35.619zm10.793 1.237c.453-.009.906-.023 1.357-.043v2.244c-.591.03-1.193.046-1.8.052v-2.246l.371-.006.072-.001zm5.815 1.727a29.306 29.306 0 01-.96.15c-.114.017-.232.031-.347.046V26.29c.463-.055.914-.119 1.35-.19v2.21l-.043.008zm-3.047.384c-.168.014-.34.023-.511.035v-2.24c.456-.03.907-.066 1.35-.11v2.233c-.261.027-.523.055-.791.078-.016 0-.032.003-.048.004zm5.143-.844a17.994 17.994 0 01-1.047.256l-.107.022V25.94c.478-.094.93-.197 1.35-.31v2.173l-.196.055zm2.441-4.379c-.041.306-.734.712-1.97 1.094-1.592.492-4.083.942-7.24 1.082a52.05 52.05 0 01-.895.031 49.171 49.171 0 01-2.687-.013c-.165-.004-.326-.012-.488-.018-3.157-.14-5.648-.59-7.24-1.082-1.226-.38-1.917-.782-1.969-1.087.002-.008.003-.015.008-.026.03.008.065.014.096.021.176.042.356.083.54.122.894.192 1.885.35 2.94.47.004 0 .007.003.01.003h.002c.72.081 1.465.145 2.231.19.006 0 .011.004.017.004l.009-.002a46.02 46.02 0 003.414.075c3.27-.05 6.3-.44 8.408-1.042.098-.027.193-.056.286-.084l.171-.052c.163-.052.32-.106.47-.162l.077-.03c.127-.048.25-.098.367-.148l.1-.045c.126-.056.246-.113.358-.173.05-.027.094-.054.141-.081a3.88 3.88 0 00.158-.095c.028-.018.062-.035.09-.053 2.014.437 2.545.915 2.596 1.101zM26.15 16.25c7.42 0 11.173 1.168 11.243 1.839-.054.304-.745.706-1.968 1.084-1.592.492-4.083.942-7.24 1.082-.162.006-.323.013-.488.018l-.407.013a49.171 49.171 0 01-2.28 0 38 38 0 01-.407-.013c-.165-.005-.326-.012-.487-.018-3.158-.14-5.65-.59-7.241-1.082-1.223-.378-1.914-.78-1.968-1.084.07-.67 3.823-1.839 11.243-1.839zM14.9 21.198v-1.863c.36.226.815.433 1.35.619v2.155c-.875-.329-1.35-.657-1.35-.91zm2.18 6.228l.024.02c.616.622 1.892 1.111 3.48 1.476l.111.025c.117.026.235.052.355.076 1.459.31 3.2.535 5.096.646h.005c.61.036 1.233.06 1.87.072a40.43 40.43 0 001.782-.002 46.504 46.504 0 001.74-.07l.007.001.011-.002c1.902-.112 3.686-.339 5.195-.665a8.153 8.153 0 01-1.331.52c-1.68.52-4.365.992-7.776 1.102l-.304.01-.335.006a49.171 49.171 0 01-2.407-.018c-.165-.004-.326-.012-.487-.018-3.158-.14-5.65-.59-7.241-1.082-1.238-.383-1.93-.79-1.97-1.095.05-.17.505-.593 2.175-1.002zm-2.18 4.122v-1.863c.36.226.815.433 1.35.619v2.146l-.257-.1-.005.005c-.707-.292-1.087-.58-1.088-.807zm1.35 4.95v-1.863c.36.226.815.433 1.35.619v2.155c-.875-.328-1.35-.657-1.35-.91zm21.15.91v-2.154c.535-.186.99-.392 1.35-.619v1.862c0 .254-.475.583-1.35.912zm1.344-4.023c-.049.304-.74.708-1.969 1.088-1.592.492-4.083.943-7.24 1.082a52.05 52.05 0 01-.895.031 49.278 49.278 0 01-2.282 0c-.135-.003-.268-.008-.402-.012l-.49-.02c-3.158-.139-5.649-.59-7.241-1.081-1.19-.368-1.878-.758-1.964-1.06a13.107 13.107 0 00.978.298c.072.02.145.038.22.057 1.638.42 3.73.717 5.989.851h.003a44.953 44.953 0 003.458.073 45.03 45.03 0 001.938-.072h.003l.006-.001a41.434 41.434 0 002.237-.195l.007.002c.01 0 .018-.005.028-.006a32.701 32.701 0 002.69-.42l.094-.02c1.329-.272 2.48-.625 3.268-1.063.044-.024.084-.048.125-.072.05-.03.098-.06.144-.09.043-.028.093-.055.133-.084.888.317 1.133.6 1.162.714zm.006-5.876v-2.155c.535-.186.99-.392 1.35-.619v1.862c0 .254-.475.583-1.35.912z" fill="#fff"/></svg>