<svg width="100" height="100" fill="none" xmlns="http://www.w3.org/2000/svg"><circle cx="50" cy="50" r="50" fill="#E65858"/><g clip-path="url(#clip0)"><path d="M73.668 60.493l-6.838-6.559c-2.443-2.342-6.594-1.405-7.571 1.64-.733 2.108-3.175 3.28-5.373 2.811-4.884-1.171-11.478-7.262-12.7-12.181-.732-2.108.733-4.45 2.931-5.154 3.175-.936 4.152-4.919 1.71-7.261l-6.838-6.56c-1.954-1.639-4.885-1.639-6.594 0l-4.64 4.452c-4.64 4.684.488 17.1 11.966 28.11C51.2 70.8 64.143 75.954 69.028 71.269l4.64-4.451c1.71-1.874 1.71-4.685 0-6.325z" fill="#fff"/></g><defs><clipPath id="clip0"><path fill="#fff" transform="translate(26 26)" d="M0 0h49v47H0z"/></clipPath></defs></svg>