<svg width="100" height="100" fill="none" xmlns="http://www.w3.org/2000/svg"><circle cx="50" cy="50" r="50" fill="#E65858"/><g clip-path="url(#clip0)" fill="#fff"><path d="M69.844 38.893a2.041 2.041 0 00-.949 2.727 20.208 20.208 0 012.022 8.88c0 11.258-9.16 20.417-20.417 20.417-11.258 0-20.417-9.16-20.417-20.417 0-11.258 9.16-20.417 20.417-20.417 4.665 0 9.047 1.524 12.675 4.405a2.041 2.041 0 102.54-3.196C61.421 27.88 56.017 26 50.5 26 36.991 26 26 36.991 26 50.5S36.991 75 50.5 75 75 64.009 75 50.5c0-3.743-.817-7.33-2.43-10.658a2.04 2.04 0 00-2.726-.949z"/><path d="M50.5 34.167a2.042 2.042 0 00-2.041 2.041V50.5c0 1.127.915 2.042 2.042 2.042h10.208a2.042 2.042 0 000-4.084h-8.167v-12.25a2.042 2.042 0 00-2.041-2.041z"/></g><defs><clipPath id="clip0"><path fill="#fff" transform="translate(26 26)" d="M0 0h49v49H0z"/></clipPath></defs></svg>