<svg width="100" height="100" fill="none" xmlns="http://www.w3.org/2000/svg"><circle cx="50" cy="50" r="50" fill="#E65858"/><path d="M72.254 33H27.746C25.132 33 23 34.76 23 36.923v26.154C23 65.232 25.123 67 27.746 67h44.508C74.86 67 77 65.245 77 63.077V36.923C77 34.768 74.877 33 72.254 33zm-.656 2.615l-21.497 17.77-21.684-17.77h43.181zm-45.434 26.92V37.452L41.402 49.94 26.164 62.535zm2.237 1.85L43.65 51.78l5.343 4.378c.618.507 1.616.506 2.232-.004l5.21-4.306L71.6 64.384H28.4zm45.435-1.85L58.67 50l15.165-12.535v25.07z" fill="#fff"/></svg>