<svg width="17" height="17" fill="none" xmlns="http://www.w3.org/2000/svg"><path d="M9.87 16.89zm.17-.03c-.033.007-.067.012-.101.018l.102-.018zm-.573.085zm.163-.02zm.642-.111l-.09.02.09-.02zm.574-.142l-.072.02.072-.02zm-.173.048l-.08.02a5.36 5.36 0 00.08-.02zm-.228.056l-.083.019.083-.02zm-1.23.194z" fill="#2F3035"/><path d="M17 8.5a8.5 8.5 0 00-17 0A8.5 8.5 0 008.5 17l.15-.002v-6.617H6.822V8.253H8.65V6.687c0-1.817 1.11-2.805 2.73-2.805.775 0 1.442.058 1.637.084v1.898h-1.118c-.881 0-1.052.419-1.052 1.033v1.356h2.108l-.275 2.128h-1.833v6.29A8.505 8.505 0 0017 8.5z" fill="#fff"/><path d="M9.062 16.981zm-.272.014z" fill="#2F3035"/></svg>