<svg width="17" height="17" fill="none" xmlns="http://www.w3.org/2000/svg"><g clip-path="url(#clip0)" fill="#fff"><path d="M8.503 4.135a4.361 4.361 0 10-.001 8.723 4.361 4.361 0 000-8.723zm0 7.193a2.83 2.83 0 110-5.662 2.83 2.83 0 110 5.662z"/><path d="M12.005.055C10.44-.018 6.567-.015 5 .055 3.626.119 2.412.45 1.434 1.429-.2 3.064.008 5.267.008 8.498c0 3.307-.184 5.458 1.426 7.068 1.641 1.64 3.876 1.426 7.069 1.426 3.275 0 4.405.002 5.563-.446 1.575-.611 2.764-2.019 2.88-4.547.074-1.565.07-5.438 0-7.003-.14-2.984-1.742-4.794-4.941-4.941zm2.475 14.43c-1.072 1.072-2.558.976-5.998.976-3.542 0-4.962.052-5.998-.987-1.194-1.188-.978-3.095-.978-5.987 0-3.914-.401-6.732 3.526-6.934.903-.031 1.168-.042 3.44-.042l.032.021c3.775 0 6.736-.395 6.914 3.532.04.896.05 1.165.05 3.433-.001 3.5.066 4.93-.988 5.988z"/><path d="M13.038 4.982a1.02 1.02 0 100-2.038 1.02 1.02 0 000 2.038z"/></g><defs><clipPath id="clip0"><path fill="#fff" d="M0 0h17v17H0z"/></clipPath></defs></svg>