<svg width="13" height="14" fill="none" xmlns="http://www.w3.org/2000/svg"><g clip-path="url(#clip0)" fill="#000"><path d="M5.383 8.487c-1.24-1.24-1.52-2.482-1.584-2.979a.446.446 0 01.128-.373L4.93 4.132a.448.448 0 00.063-.555L3.395 1.094a.448.448 0 00-.58-.163L.248 2.14a.446.446 0 00-.246.445c.134 1.278.691 4.418 3.777 7.505 3.087 3.087 6.227 3.643 7.505 3.778a.446.446 0 00.446-.247l1.208-2.566a.448.448 0 00-.162-.58l-2.483-1.599a.448.448 0 00-.554.063L8.735 9.943a.445.445 0 01-.373.128c-.497-.063-1.738-.343-2.979-1.584z"/><path d="M10.31 7.818a.448.448 0 01-.448-.448A3.366 3.366 0 006.5 4.008a.448.448 0 010-.897 4.263 4.263 0 014.259 4.259.449.449 0 01-.449.448z"/><path d="M12.552 7.818a.448.448 0 01-.449-.448A5.61 5.61 0 006.5 1.766a.448.448 0 010-.896 6.507 6.507 0 016.5 6.5.449.449 0 01-.448.448z"/></g><defs><clipPath id="clip0"><path fill="#fff" transform="translate(0 .87)" d="M0 0h13v13H0z"/></clipPath></defs></svg>