<svg width="345" height="21" fill="none" xmlns="http://www.w3.org/2000/svg"><path d="M182.974 6.425c-1.016-3.05-3.503-5.457-6.618-6.402a.522.522 0 00-.652.356l-1.551 5.702a.31.31 0 00.599.159l1.092-4.015a8.31 8.31 0 015.001 4.844l-2.995 1.085c-.364-.622-1.206-.903-1.879-.622a1.513 1.513 0 00-.943 1.644l-1.191.431.54-1.985a.31.31 0 00-.6-.159l-.592 2.175c-.119.384.303.763.678.612l8.797-3.186a.508.508 0 00.314-.64zm-6.968-4.794l.269-.99c2.851.901 5.112 3.09 6.077 5.882l-.923.335a8.936 8.936 0 00-5.423-5.227zm.195 6.47a.923.923 0 011.048.27l-1.62.587a.9.9 0 01.572-.858z" fill="#A6A6A6"/><path d="M181.925 8.735a.523.523 0 00-.682-.361l-3.753 1.359-1.901.688-.003.001-1.508.547a.305.305 0 00-.185.393.31.31 0 00.398.181l1.247-.45a1.543 1.543 0 001.864.622 1.513 1.513 0 00.956-1.644l1.429-.518c.096.487.146.985.146 1.485 0 4.255-3.509 7.717-7.822 7.717-4.313 0-7.822-3.462-7.822-7.717 0-4.255 3.509-7.717 7.822-7.717.507 0 1.013.05 1.507.145l-2.252 8.28a.503.503 0 00.15.51.52.52 0 00.528.102l.888-.322a.306.306 0 00.184-.393.311.311 0 00-.398-.182l-.701.254 2.659-9.774a.515.515 0 00-.389-.631 10.256 10.256 0 00-7.168 1.058.305.305 0 00-.117.418.313.313 0 00.423.115 9.469 9.469 0 014.307-1.206c.781-.03 1.56.034 2.316.19l-.269.988a8.581 8.581 0 00-1.668-.164c-4.656 0-8.443 3.736-8.443 8.33 0 4.592 3.787 8.328 8.443 8.328 4.655 0 8.442-3.736 8.442-8.329 0-.572-.059-1.142-.176-1.698l.97-.352c.125.552.199 1.12.221 1.69a9.213 9.213 0 01-2.515 6.71 9.471 9.471 0 01-6.589 2.992c-5.222.199-9.635-3.83-9.836-8.982-.117-2.99 1.241-5.879 3.632-7.727a.303.303 0 00.053-.43.314.314 0 00-.436-.052 10.085 10.085 0 00-2.908 3.584 9.882 9.882 0 00-.962 4.649 9.846 9.846 0 003.231 6.927 10.103 10.103 0 007.25 2.643 10.093 10.093 0 007.021-3.187 9.821 9.821 0 002.68-7.152 9.944 9.944 0 00-.264-1.918zm-4.748 2.408h-.001a.914.914 0 01-1.036-.269l1.616-.585a.9.9 0 01-.579.854z" fill="#A6A6A6"/><path d="M170.621 6.811c.753 0 1.366-.604 1.366-1.347s-.613-1.348-1.366-1.348c-.753 0-1.366.605-1.366 1.348 0 .743.613 1.347 1.366 1.347zm0-2.082a.74.74 0 01.745.735.74.74 0 01-.745.735.74.74 0 01-.745-.735.74.74 0 01.745-.735zm1.49 13.228c.753 0 1.366-.604 1.366-1.347s-.613-1.347-1.366-1.347c-.753 0-1.366.604-1.366 1.347s.613 1.347 1.366 1.347zm0-2.082a.74.74 0 01.745.735.74.74 0 01-.745.735.74.74 0 01-.745-.735.74.74 0 01.745-.735zm-6.456-6.492c0 .743.612 1.348 1.365 1.348s1.366-.605 1.366-1.348c0-.743-.613-1.347-1.366-1.347-.753 0-1.365.604-1.365 1.347zm1.365-.735a.74.74 0 01.745.735.74.74 0 01-.745.735.741.741 0 01-.745-.735c0-.405.335-.735.745-.735zm.828 7.39c.753 0 1.366-.604 1.366-1.347s-.613-1.347-1.366-1.347c-.753 0-1.366.604-1.366 1.347s.613 1.347 1.366 1.347zm0-2.082a.74.74 0 01.745.735.74.74 0 01-.745.735.74.74 0 01-.745-.735.74.74 0 01.745-.735zm9.206-.855a.308.308 0 00.283-.33.31.31 0 00-.336-.28c-.7.06-1.248.649-1.248 1.343 0 .743.612 1.347 1.366 1.347.753 0 1.365-.604 1.365-1.347.024-.222-.1-.478-.36-.442-.225.027-.299.247-.261.442a.74.74 0 01-.744.735.74.74 0 01-.745-.735c0-.379.298-.7.68-.732zm-7.939-5.634c-.015.042-.357 1.046.134 1.737.489.688 1.573.734 1.619.736a.31.31 0 00.305-.206c.014-.043.357-1.047-.134-1.737-.489-.688-1.573-.734-1.619-.736a.31.31 0 00-.305.206zm.527.435c.29.05.697.177.889.446.189.266.167.673.115.951-.29-.05-.697-.177-.889-.447-.189-.265-.168-.672-.115-.95zm4.31 4.691c-.791-.311-1.724.235-1.763.258a.305.305 0 00-.141.337c.011.043.281 1.069 1.075 1.382.175.069.357.096.534.096.626 0 1.199-.336 1.229-.354a.305.305 0 00.141-.337c-.011-.043-.281-1.069-1.075-1.382zm-.598 1.408c-.306-.12-.514-.473-.624-.734.271-.113.682-.227.992-.105.305.12.513.472.623.734-.271.113-.681.227-.991.105zm-2.603-1.746a.303.303 0 00.064-.36c-.02-.04-.506-.984-1.35-1.122-.84-.137-1.633.593-1.666.624a.304.304 0 00-.065.36c.021.04.507.984 1.351 1.122.072.012.143.017.214.017.756 0 1.421-.613 1.452-.641zm-2.333-.565c.24-.169.616-.366.945-.313.325.053.605.353.769.585-.24.169-.617.366-.946.313-.325-.053-.604-.354-.768-.585zm8.057-5.171a.3.3 0 00.139-.033c.04-.02.997-.5 1.136-1.333.139-.829-.602-1.61-.634-1.643a.314.314 0 00-.364-.063c-.041.02-.997.5-1.136 1.333-.139.829.602 1.61.634 1.643a.31.31 0 00.225.096zm-.247-1.64c.054-.32.357-.596.592-.758.171.237.372.608.318.933-.054.32-.357.595-.592.758-.158-.219-.375-.59-.318-.932zm-10.946 7.382c0 .507.418.919.931.919a.925.925 0 00.931-.919.925.925 0 00-.931-.918.926.926 0 00-.931.918zm.931-.306a.31.31 0 01.311.306.31.31 0 01-.311.307.308.308 0 01-.31-.307c0-.168.139-.306.31-.306zm1.656-4.532a.926.926 0 00.931-.919.926.926 0 00-.931-.918.925.925 0 00-.931.918c0 .507.417.919.931.919zm0-1.225c.171 0 .31.138.31.306a.308.308 0 01-.31.307.31.31 0 01-.311-.307.31.31 0 01.311-.306zm11.898.062a.926.926 0 00-.931-.919.926.926 0 00-.931.919c0 .506.418.918.931.918a.926.926 0 00.931-.918zm-1.241 0c0-.17.139-.306.31-.306.171 0 .31.137.31.306a.308.308 0 01-.31.306.308.308 0 01-.31-.306zm-3.498 9.003a.926.926 0 00-.931.918c0 .506.418.918.931.918a.926.926 0 00.932-.918.926.926 0 00-.932-.918zm0 1.224a.308.308 0 01-.31-.306c0-.169.139-.306.31-.306.172 0 .311.137.311.306a.309.309 0 01-.311.306zm-4.428-1.389a.925.925 0 00.931-.918.925.925 0 00-.931-.918.926.926 0 00-.931.918c0 .507.418.918.931.918zm0-1.224a.31.31 0 01.311.306.31.31 0 01-.311.306.308.308 0 01-.31-.306c0-.168.139-.306.31-.306z" fill="#A6A6A6"/><path fill="#C4C4C4" d="M0 9h139v1H0zm206 0h139v1H206z"/></svg>