<svg width="17" height="10" fill="none" xmlns="http://www.w3.org/2000/svg"><path d="M14.107 5.734c-.275-.35-.196-.505 0-.818.004-.004 2.272-3.165 2.506-4.237l.002-.001c.116-.39 0-.678-.562-.678h-1.859c-.473 0-.691.246-.808.522 0 0-.946 2.284-2.285 3.765-.432.428-.632.565-.868.565-.116 0-.297-.137-.297-.528V.678C9.936.209 9.804 0 9.412 0H6.489c-.297 0-.473.219-.473.422 0 .444.67.547.739 1.797V4.93c0 .594-.107.703-.344.703-.632 0-2.166-2.293-3.075-4.918C3.153.206 2.974 0 2.497 0H.637C.108 0 0 .247 0 .523c0 .487.632 2.91 2.938 6.11C4.475 8.815 6.64 10 8.61 10c1.184 0 1.329-.263 1.329-.715 0-2.087-.107-2.284.486-2.284.274 0 .748.137 1.853 1.19C13.54 9.441 13.747 10 14.454 10h1.859c.53 0 .798-.263.644-.781-.354-1.091-2.742-3.335-2.85-3.485z" fill="#fff"/></svg>