<svg width="17" height="17" fill="none" xmlns="http://www.w3.org/2000/svg"><path d="M7.441 10.092L10.206 8.5 7.441 6.907v3.185z" fill="#fff"/><path d="M8.5 0a8.5 8.5 0 000 17 8.5 8.5 0 000-17zm5.311 8.509s0 1.723-.219 2.555a1.33 1.33 0 01-.936.936c-.831.219-4.156.219-4.156.219s-3.316 0-4.156-.228a1.331 1.331 0 01-.937-.936C3.19 10.233 3.19 8.5 3.19 8.5s0-1.724.218-2.555c.123-.455.49-.823.937-.945.831-.219 4.156-.219 4.156-.219s3.325 0 4.156.228c.455.122.814.481.936.936.228.831.22 2.564.22 2.564z" fill="#fff"/></svg>